<svg xmlns="http://www.w3.org/2000/svg" xmlns:xlink="http://www.w3.org/1999/xlink" width="98" zoomAndPan="magnify" viewBox="0 0 73.5 59.249999" height="79" preserveAspectRatio="xMidYMid meet" version="1.0"><defs><g/><clipPath id="1eecbcd9ab"><path d="M 12.558594 0.195312 L 60.699219 0.195312 L 60.699219 33 L 12.558594 33 Z M 12.558594 0.195312 " clip-rule="nonzero"/></clipPath><clipPath id="1f8d7f1398"><path d="M 35 35 L 38 35 L 38 42.414062 L 35 42.414062 Z M 35 35 " clip-rule="nonzero"/></clipPath></defs><g clip-path="url(#1eecbcd9ab)"><path fill="#cc921f" d="M 12.558594 0.222656 C 12.742188 0.929688 12.890625 1.648438 13.117188 2.34375 C 13.570312 3.707031 13.992188 5.089844 14.566406 6.402344 C 15.160156 7.757812 16.222656 8.730469 17.523438 9.464844 C 22.246094 12.140625 26.953125 14.847656 31.664062 17.542969 C 31.800781 17.625 31.933594 17.710938 32.050781 17.828125 C 26.421875 15.265625 20.945312 12.417969 15.578125 9.117188 C 15.652344 9.316406 15.675781 9.417969 15.726562 9.507812 C 16.582031 11.058594 17.457031 12.597656 18.304688 14.148438 C 19.082031 15.574219 20.328125 16.183594 21.878906 16.421875 C 24.476562 16.8125 27.066406 17.285156 29.65625 17.722656 C 30.472656 17.863281 31.285156 18.007812 32.09375 18.179688 C 28.035156 18.011719 24.015625 17.496094 19.964844 16.902344 C 20.199219 17.097656 20.429688 17.285156 20.660156 17.480469 C 21.621094 18.300781 22.609375 19.09375 23.535156 19.957031 C 24.277344 20.644531 25.042969 20.769531 25.992188 20.445312 C 27.957031 19.777344 29.949219 19.175781 31.929688 18.546875 C 31.992188 18.523438 32.0625 18.511719 32.136719 18.53125 C 31.398438 18.878906 30.652344 19.207031 29.921875 19.570312 C 28.890625 20.089844 27.96875 20.769531 27.1875 21.625 C 26.382812 22.503906 26.257812 23.46875 26.9375 24.433594 C 27.851562 25.730469 28.84375 26.976562 29.855469 28.238281 C 28.960938 24.464844 29.816406 21.210938 32.679688 18.546875 C 32.605469 18.6875 32.527344 18.832031 32.453125 18.972656 C 31.542969 20.636719 30.757812 22.347656 30.492188 24.25 C 30.300781 25.601562 30.507812 26.84375 31.550781 27.820312 C 32.667969 28.867188 33.800781 29.898438 34.925781 30.9375 C 35.351562 31.328125 35.765625 31.722656 36.21875 32.105469 C 33.847656 27.894531 32.824219 23.355469 32.949219 18.527344 C 33.535156 20.453125 34.125 22.378906 34.710938 24.304688 C 35.296875 26.230469 35.878906 28.15625 36.566406 30.078125 C 37.738281 26.226562 38.90625 22.378906 40.078125 18.527344 C 40.203125 23.34375 39.1875 27.875 36.839844 32.105469 C 36.917969 32.042969 36.992188 31.980469 37.066406 31.914062 C 37.140625 31.84375 37.210938 31.765625 37.289062 31.695312 C 38.457031 30.632812 39.589844 29.527344 40.800781 28.523438 C 42.535156 27.089844 42.917969 25.328125 42.347656 23.234375 C 41.9375 21.730469 41.320312 20.324219 40.574219 18.96875 C 40.507812 18.851562 40.441406 18.734375 40.382812 18.617188 C 40.371094 18.59375 40.382812 18.5625 40.386719 18.476562 C 41.742188 19.742188 42.683594 21.214844 43.167969 22.972656 C 43.644531 24.71875 43.585938 26.464844 43.191406 28.246094 C 43.820312 27.445312 44.453125 26.644531 45.078125 25.839844 C 45.386719 25.441406 45.6875 25.03125 45.976562 24.617188 C 46.761719 23.507812 46.683594 22.511719 45.746094 21.519531 C 44.628906 20.339844 43.246094 19.5625 41.773438 18.933594 C 41.472656 18.808594 41.175781 18.679688 40.902344 18.480469 C 42.066406 18.820312 43.230469 19.152344 44.386719 19.511719 C 45.238281 19.78125 46.089844 20.050781 46.910156 20.390625 C 47.925781 20.8125 48.746094 20.65625 49.554688 19.898438 C 50.566406 18.953125 51.652344 18.09375 52.707031 17.199219 C 52.820312 17.101562 52.929688 17.007812 53.03125 16.867188 C 49.015625 17.488281 44.996094 18.015625 40.929688 18.15625 C 42.460938 17.878906 43.988281 17.589844 45.523438 17.332031 C 47.558594 16.984375 49.597656 16.667969 51.636719 16.328125 C 52.871094 16.125 53.894531 15.550781 54.53125 14.449219 C 55.496094 12.773438 56.421875 11.074219 57.363281 9.386719 C 57.390625 9.339844 57.398438 9.285156 57.457031 9.113281 C 52.085938 12.414062 46.605469 15.265625 40.949219 17.78125 C 42.421875 16.917969 43.886719 16.039062 45.371094 15.191406 C 48.667969 13.3125 51.953125 11.417969 55.28125 9.597656 C 56.96875 8.671875 58.199219 7.378906 58.847656 5.59375 C 59.484375 3.84375 59.988281 2.039062 60.550781 0.261719 C 60.503906 0.242188 60.460938 0.222656 60.414062 0.203125 C 60.359375 0.253906 60.292969 0.296875 60.253906 0.355469 C 57.71875 4.046875 54.386719 6.855469 50.550781 9.101562 C 48.023438 10.582031 45.507812 12.089844 42.976562 13.566406 C 41.734375 14.289062 41.144531 15.476562 40.636719 16.726562 C 40.445312 17.191406 40.304688 17.679688 40.125 18.214844 C 39.457031 17.328125 39.113281 16.382812 39.164062 15.296875 C 39.183594 14.882812 39.234375 14.445312 39.125 14.058594 C 38.773438 12.792969 37.777344 12.238281 36.585938 11.960938 C 35.90625 11.804688 35.265625 11.867188 34.703125 12.367188 C 34.574219 12.484375 34.316406 12.476562 34.117188 12.496094 C 33.25 12.589844 32.859375 13.003906 32.96875 13.730469 C 34.257812 13.382812 35.148438 14.109375 35.101562 15.46875 C 35.050781 16.839844 34.101562 18.042969 32.90625 18.21875 C 32.730469 17.707031 32.570312 17.1875 32.378906 16.679688 C 31.808594 15.191406 30.929688 14 29.484375 13.195312 C 26.875 11.738281 24.316406 10.1875 21.75 8.648438 C 18.195312 6.519531 15.164062 3.808594 12.796875 0.386719 C 12.75 0.316406 12.691406 0.253906 12.558594 0.222656 Z M 35.402344 13.039062 L 35.414062 12.699219 L 36.34375 12.925781 L 36.335938 13.027344 Z M 35.402344 13.039062 " fill-opacity="1" fill-rule="nonzero"/></g><path fill="#cc921f" d="M 28.75 38.902344 C 29.703125 38.902344 30.5625 38.949219 31.410156 38.886719 C 32.097656 38.839844 32.675781 38.46875 33.128906 37.945312 C 34.265625 36.632812 34.933594 35.085938 35.320312 33.417969 C 35.519531 32.53125 34.941406 31.304688 33.984375 30.496094 C 34.144531 30.878906 34.273438 31.183594 34.398438 31.488281 C 34.785156 32.398438 34.71875 33.25 34.183594 34.113281 C 32.980469 36.054688 31.289062 37.441406 29.34375 38.566406 C 29.171875 38.664062 28.996094 38.761719 28.75 38.902344 Z M 28.75 38.902344 " fill-opacity="1" fill-rule="nonzero"/><path fill="#cc921f" d="M 44.195312 38.871094 C 43.726562 38.589844 43.253906 38.320312 42.800781 38.027344 C 41.222656 37 39.875 35.753906 38.859375 34.144531 C 38.296875 33.253906 38.242188 32.378906 38.644531 31.4375 C 38.765625 31.15625 38.886719 30.875 39.023438 30.558594 C 38.097656 31.164062 37.503906 32.585938 37.75 33.597656 C 38.09375 35.011719 38.675781 36.320312 39.53125 37.507812 C 40.238281 38.484375 41.15625 38.992188 42.378906 38.949219 C 42.980469 38.925781 43.582031 38.945312 44.179688 38.945312 C 44.183594 38.921875 44.1875 38.894531 44.195312 38.871094 Z M 44.195312 38.871094 " fill-opacity="1" fill-rule="nonzero"/><g clip-path="url(#1f8d7f1398)"><path fill="#cc921f" d="M 36.535156 42.757812 C 37.285156 41.675781 37.601562 40.539062 37.328125 39.269531 C 37.078125 38.097656 36.828125 36.925781 36.578125 35.753906 C 36.542969 35.75 36.507812 35.746094 36.46875 35.742188 C 36.417969 35.96875 36.359375 36.199219 36.3125 36.429688 C 36.097656 37.414062 35.875 38.398438 35.675781 39.382812 C 35.441406 40.53125 35.78125 41.867188 36.535156 42.757812 Z M 36.535156 42.757812 " fill-opacity="1" fill-rule="nonzero"/></g><path fill="#cc921f" d="M 35.894531 33.875 C 35.386719 35.011719 34.882812 36.261719 34.277344 37.460938 C 33.664062 38.667969 32.78125 39.699219 31.765625 40.640625 C 33.003906 40.886719 34.34375 40.179688 34.910156 38.980469 C 35.6875 37.320312 35.980469 35.5625 35.894531 33.875 Z M 35.894531 33.875 " fill-opacity="1" fill-rule="nonzero"/><path fill="#cc921f" d="M 37.175781 33.734375 C 37.042969 35.53125 37.339844 37.242188 38.0625 38.875 C 38.625 40.136719 39.808594 40.800781 41.289062 40.675781 C 39.210938 38.742188 37.941406 36.382812 37.175781 33.734375 Z M 37.175781 33.734375 " fill-opacity="1" fill-rule="nonzero"/><path fill="#cc921f" d="M 46.941406 32.886719 C 46.476562 32.605469 46.003906 32.339844 45.550781 32.042969 C 43.972656 31.019531 42.625 29.769531 41.609375 28.160156 C 41.046875 27.269531 40.992188 26.394531 41.394531 25.453125 C 41.515625 25.171875 41.636719 24.890625 41.773438 24.574219 C 40.847656 25.179688 40.253906 26.605469 40.5 27.617188 C 40.84375 29.027344 41.425781 30.335938 42.28125 31.523438 C 42.988281 32.5 43.90625 33.011719 45.128906 32.964844 C 45.726562 32.945312 46.332031 32.960938 46.929688 32.960938 C 46.933594 32.9375 46.9375 32.914062 46.941406 32.886719 Z M 46.941406 32.886719 " fill-opacity="1" fill-rule="nonzero"/><path fill="#cc921f" d="M 39.925781 27.753906 C 39.792969 29.546875 40.089844 31.261719 40.8125 32.890625 C 41.375 34.152344 42.558594 34.820312 44.039062 34.691406 C 41.960938 32.757812 40.691406 30.402344 39.925781 27.753906 Z M 39.925781 27.753906 " fill-opacity="1" fill-rule="nonzero"/><path fill="#cc921f" d="M 26.472656 32.886719 C 26.9375 32.605469 27.410156 32.339844 27.863281 32.042969 C 29.441406 31.019531 30.789062 29.769531 31.804688 28.160156 C 32.367188 27.269531 32.421875 26.394531 32.019531 25.453125 C 31.898438 25.171875 31.777344 24.890625 31.640625 24.574219 C 32.566406 25.179688 33.160156 26.605469 32.914062 27.617188 C 32.570312 29.027344 31.988281 30.335938 31.132812 31.523438 C 30.429688 32.5 29.507812 33.011719 28.285156 32.964844 C 27.6875 32.945312 27.085938 32.960938 26.484375 32.960938 C 26.480469 32.9375 26.476562 32.914062 26.472656 32.886719 Z M 26.472656 32.886719 " fill-opacity="1" fill-rule="nonzero"/><path fill="#cc921f" d="M 33.488281 27.753906 C 33.621094 29.546875 33.324219 31.261719 32.601562 32.890625 C 32.042969 34.152344 30.855469 34.820312 29.375 34.691406 C 31.453125 32.757812 32.722656 30.402344 33.488281 27.753906 Z M 33.488281 27.753906 " fill-opacity="1" fill-rule="nonzero"/><path fill="#ffffff" d="M 35.414062 13.027344 C 35.722656 13.027344 36.03125 13.027344 36.339844 13.027344 C 36.339844 12.992188 36.34375 12.960938 36.34375 12.925781 C 36.039062 12.902344 35.730469 12.875 35.425781 12.851562 C 35.421875 12.910156 35.417969 12.96875 35.414062 13.027344 Z M 35.414062 13.027344 " fill-opacity="1" fill-rule="nonzero"/><g fill="#e6c584" fill-opacity="1"><g transform="translate(13.514121, 52.584999)"><g><path d="M 3.78125 0 L 3.046875 -5.4375 L 2.265625 0 L 1.1875 0 L 0.21875 -7.234375 L 1.28125 -7.234375 L 1.65625 -4.1875 L 1.8125 -2.625 L 1.84375 -2.625 L 2 -4.1875 L 2.4375 -7.234375 L 3.578125 -7.234375 L 4.046875 -4.25 L 4.25 -2.625 L 4.28125 -2.625 L 4.421875 -4.234375 L 4.734375 -7.234375 L 5.8125 -7.234375 L 4.890625 0 Z M 3.78125 0 "/></g></g></g><g fill="#e6c584" fill-opacity="1"><g transform="translate(19.543813, 52.584999)"><g><path d="M 2.328125 0.09375 C 1.515625 0.09375 0.988281 -0.21875 0.75 -0.84375 C 0.601562 -1.238281 0.53125 -1.757812 0.53125 -2.40625 L 0.53125 -5.09375 C 0.53125 -6.570312 1.144531 -7.3125 2.375 -7.3125 C 3.03125 -7.3125 3.484375 -7.117188 3.734375 -6.734375 C 3.992188 -6.347656 4.125 -5.796875 4.125 -5.078125 L 4.125 -3.53125 L 1.8125 -3.53125 L 1.8125 -2.109375 C 1.8125 -1.609375 1.851562 -1.285156 1.9375 -1.140625 C 2.03125 -1.003906 2.160156 -0.9375 2.328125 -0.9375 C 2.503906 -0.9375 2.617188 -0.976562 2.671875 -1.0625 C 2.765625 -1.207031 2.816406 -1.351562 2.828125 -1.5 C 2.835938 -1.644531 2.84375 -1.847656 2.84375 -2.109375 L 2.84375 -2.75 L 4.109375 -2.75 L 4.109375 -2.359375 C 4.109375 -1.703125 4.054688 -1.226562 3.953125 -0.9375 C 3.847656 -0.65625 3.726562 -0.453125 3.59375 -0.328125 C 3.3125 -0.046875 2.890625 0.09375 2.328125 0.09375 Z M 1.8125 -4.28125 L 2.84375 -4.28125 L 2.84375 -5.203125 C 2.84375 -5.597656 2.8125 -5.878906 2.75 -6.046875 C 2.6875 -6.222656 2.5625 -6.3125 2.375 -6.3125 C 2.363281 -6.3125 2.359375 -6.3125 2.359375 -6.3125 C 2.023438 -6.3125 1.847656 -6.054688 1.828125 -5.546875 C 1.816406 -5.453125 1.8125 -5.328125 1.8125 -5.171875 Z M 1.8125 -4.28125 "/></g></g></g><g fill="#e6c584" fill-opacity="1"><g transform="translate(24.161271, 52.584999)"><g><path d="M 1.921875 -0.671875 L 1.921875 0 L 0.640625 0 L 0.640625 -8.5625 L 1.921875 -8.5625 L 1.921875 -6.71875 C 1.984375 -6.894531 2.101562 -7.035156 2.28125 -7.140625 C 2.457031 -7.253906 2.648438 -7.3125 2.859375 -7.3125 C 3.472656 -7.3125 3.878906 -7.035156 4.078125 -6.484375 C 4.203125 -6.128906 4.265625 -5.6875 4.265625 -5.15625 L 4.265625 -2.09375 C 4.265625 -2.082031 4.265625 -2.078125 4.265625 -2.078125 C 4.265625 -1.023438 4.03125 -0.363281 3.5625 -0.09375 C 3.394531 0.0195312 3.191406 0.078125 2.953125 0.078125 C 2.953125 0.078125 2.945312 0.078125 2.9375 0.078125 C 2.445312 0.0664062 2.109375 -0.179688 1.921875 -0.671875 Z M 1.921875 -2.203125 C 1.921875 -1.765625 1.957031 -1.445312 2.03125 -1.25 C 2.101562 -1.050781 2.25 -0.953125 2.46875 -0.953125 C 2.6875 -0.953125 2.828125 -1.046875 2.890625 -1.234375 C 2.953125 -1.429688 2.984375 -1.757812 2.984375 -2.21875 L 2.984375 -5.171875 C 2.984375 -5.742188 2.910156 -6.085938 2.765625 -6.203125 C 2.691406 -6.253906 2.601562 -6.28125 2.5 -6.28125 C 2.289062 -6.28125 2.140625 -6.203125 2.046875 -6.046875 C 1.960938 -5.890625 1.921875 -5.597656 1.921875 -5.171875 Z M 1.921875 -2.203125 "/></g></g></g><g fill="#e6c584" fill-opacity="1"><g transform="translate(28.961885, 52.584999)"><g><path d="M 0.421875 1.28125 L 0.421875 0.390625 L 0.84375 0.390625 C 1 0.390625 1.117188 0.375 1.203125 0.34375 C 1.296875 0.320312 1.347656 0.273438 1.359375 0.203125 C 1.378906 0.171875 1.390625 0.109375 1.390625 0.015625 C 1.390625 -0.0664062 1.378906 -0.179688 1.359375 -0.328125 L 0.203125 -7.234375 L 1.421875 -7.234375 L 1.875 -3.53125 L 2.078125 -1.59375 L 2.171875 -1.59375 L 2.359375 -3.53125 L 2.78125 -7.234375 L 3.984375 -7.234375 L 2.734375 0.3125 C 2.679688 0.675781 2.585938 0.925781 2.453125 1.0625 C 2.328125 1.207031 2.101562 1.28125 1.78125 1.28125 Z M 0.421875 1.28125 "/></g></g></g><g fill="#e6c584" fill-opacity="1"><g transform="translate(33.068435, 52.584999)"><g/></g></g><g fill="#e6c584" fill-opacity="1"><g transform="translate(34.837341, 52.584999)"><g><path d="M 2.375 0.09375 C 1.65625 0.09375 1.164062 -0.117188 0.90625 -0.546875 C 0.65625 -0.984375 0.53125 -1.601562 0.53125 -2.40625 L 0.53125 -4.75 C 0.53125 -5.800781 0.710938 -6.507812 1.078125 -6.875 C 1.367188 -7.164062 1.8125 -7.3125 2.40625 -7.3125 C 3 -7.3125 3.425781 -7.132812 3.6875 -6.78125 C 3.945312 -6.425781 4.078125 -5.910156 4.078125 -5.234375 L 4.078125 -4.4375 L 2.84375 -4.4375 L 2.84375 -5.28125 C 2.84375 -5.71875 2.800781 -5.988281 2.71875 -6.09375 C 2.644531 -6.207031 2.515625 -6.265625 2.328125 -6.265625 C 2.140625 -6.265625 2.003906 -6.179688 1.921875 -6.015625 C 1.847656 -5.847656 1.8125 -5.59375 1.8125 -5.25 L 1.8125 -2 C 1.8125 -1.644531 1.847656 -1.378906 1.921875 -1.203125 C 1.992188 -1.035156 2.132812 -0.953125 2.34375 -0.953125 C 2.632812 -0.960938 2.796875 -1.164062 2.828125 -1.5625 C 2.835938 -1.65625 2.84375 -1.765625 2.84375 -1.890625 C 2.84375 -1.921875 2.84375 -1.953125 2.84375 -1.984375 L 2.84375 -2.84375 L 4.078125 -2.84375 L 4.078125 -2.109375 C 4.078125 -1.410156 3.945312 -0.867188 3.6875 -0.484375 C 3.425781 -0.0976562 2.988281 0.09375 2.375 0.09375 Z M 2.375 0.09375 "/></g></g></g><g fill="#e6c584" fill-opacity="1"><g transform="translate(39.382506, 52.584999)"><g><path d="M 0.65625 0 L 0.65625 -8.5625 L 1.921875 -8.5625 L 1.921875 0 Z M 0.65625 0 "/></g></g></g><g fill="#e6c584" fill-opacity="1"><g transform="translate(41.95633, 52.584999)"><g><path d="M 2.34375 -0.9375 C 2.539062 -0.9375 2.675781 -1.023438 2.75 -1.203125 C 2.820312 -1.378906 2.859375 -1.640625 2.859375 -1.984375 L 2.859375 -5.234375 C 2.859375 -5.578125 2.820312 -5.835938 2.75 -6.015625 C 2.675781 -6.191406 2.539062 -6.28125 2.34375 -6.28125 C 2.144531 -6.28125 2.003906 -6.191406 1.921875 -6.015625 C 1.847656 -5.847656 1.8125 -5.585938 1.8125 -5.234375 L 1.8125 -1.984375 C 1.8125 -1.460938 1.898438 -1.140625 2.078125 -1.015625 C 2.148438 -0.960938 2.238281 -0.9375 2.34375 -0.9375 Z M 2.34375 0.09375 C 1.664062 0.09375 1.191406 -0.109375 0.921875 -0.515625 C 0.660156 -0.929688 0.53125 -1.523438 0.53125 -2.296875 L 0.53125 -5 C 0.53125 -6.539062 1.128906 -7.3125 2.328125 -7.3125 C 3.535156 -7.3125 4.140625 -6.539062 4.140625 -5 L 4.140625 -2.296875 C 4.140625 -1.085938 3.832031 -0.347656 3.21875 -0.078125 C 2.976562 0.0351562 2.6875 0.09375 2.34375 0.09375 Z M 2.34375 0.09375 "/></g></g></g><g fill="#e6c584" fill-opacity="1"><g transform="translate(46.631626, 52.584999)"><g><path d="M 1.875 0.09375 C 1.019531 0.09375 0.59375 -0.484375 0.59375 -1.640625 L 0.59375 -7.234375 L 1.875 -7.234375 L 1.875 -1.84375 C 1.875 -1.539062 1.910156 -1.316406 1.984375 -1.171875 C 2.054688 -1.023438 2.191406 -0.953125 2.390625 -0.953125 C 2.785156 -0.953125 2.984375 -1.242188 2.984375 -1.828125 L 2.984375 -7.234375 L 4.25 -7.234375 L 4.25 0 L 2.984375 0 L 2.984375 -0.75 C 2.773438 -0.1875 2.40625 0.09375 1.875 0.09375 Z M 1.875 0.09375 "/></g></g></g><g fill="#e6c584" fill-opacity="1"><g transform="translate(51.523824, 52.584999)"><g><path d="M 1.859375 0.078125 C 1.472656 0.078125 1.179688 -0.03125 0.984375 -0.25 C 0.796875 -0.46875 0.671875 -0.742188 0.609375 -1.078125 C 0.554688 -1.421875 0.53125 -1.832031 0.53125 -2.3125 L 0.53125 -5.25 C 0.53125 -5.851562 0.640625 -6.347656 0.859375 -6.734375 C 1.085938 -7.117188 1.457031 -7.3125 1.96875 -7.3125 C 2.164062 -7.3125 2.347656 -7.265625 2.515625 -7.171875 C 2.679688 -7.078125 2.804688 -6.945312 2.890625 -6.78125 L 2.890625 -8.5625 L 4.171875 -8.5625 L 4.171875 0 L 2.890625 0 L 2.890625 -0.671875 C 2.703125 -0.171875 2.359375 0.078125 1.859375 0.078125 Z M 1.8125 -2.140625 C 1.8125 -1.734375 1.847656 -1.429688 1.921875 -1.234375 C 2.003906 -1.035156 2.148438 -0.9375 2.359375 -0.9375 C 2.566406 -0.9375 2.707031 -1.035156 2.78125 -1.234375 C 2.863281 -1.429688 2.90625 -1.765625 2.90625 -2.234375 L 2.90625 -5.125 C 2.90625 -5.71875 2.8125 -6.078125 2.625 -6.203125 C 2.550781 -6.253906 2.460938 -6.28125 2.359375 -6.28125 C 2.140625 -6.28125 1.992188 -6.179688 1.921875 -5.984375 C 1.847656 -5.785156 1.8125 -5.492188 1.8125 -5.109375 Z M 1.8125 -2.140625 "/></g></g></g><g fill="#e6c584" fill-opacity="1"><g transform="translate(56.334078, 52.584999)"><g><path d="M 0.421875 1.28125 L 0.421875 0.390625 L 0.84375 0.390625 C 1 0.390625 1.117188 0.375 1.203125 0.34375 C 1.296875 0.320312 1.347656 0.273438 1.359375 0.203125 C 1.378906 0.171875 1.390625 0.109375 1.390625 0.015625 C 1.390625 -0.0664062 1.378906 -0.179688 1.359375 -0.328125 L 0.203125 -7.234375 L 1.421875 -7.234375 L 1.875 -3.53125 L 2.078125 -1.59375 L 2.171875 -1.59375 L 2.359375 -3.53125 L 2.78125 -7.234375 L 3.984375 -7.234375 L 2.734375 0.3125 C 2.679688 0.675781 2.585938 0.925781 2.453125 1.0625 C 2.328125 1.207031 2.101562 1.28125 1.78125 1.28125 Z M 0.421875 1.28125 "/></g></g></g><path stroke-linecap="butt" transform="matrix(0.740625, 0, 0, 0.740625, 4.491084, 41.779833)" fill="none" stroke-linejoin="miter" d="M 16.689255 13.999805 L 15.702968 6.663306 L 14.648115 13.999805 L 13.187145 13.999805 L 11.879128 4.237146 L 13.32955 4.237146 L 13.825331 8.356345 L 14.04685 10.450227 L 14.089044 10.450227 L 14.300014 8.35107 L 14.880183 4.237146 L 16.414993 4.237146 L 17.053179 8.271956 L 17.32744 10.450227 L 17.369635 10.450227 L 17.554234 8.277231 L 17.991998 4.237146 L 19.437145 4.237146 L 18.197694 13.999805 Z M 22.87069 14.115839 C 21.773643 14.115839 21.066892 13.699172 20.750436 12.860564 C 20.550015 12.327864 20.449804 11.626387 20.449804 10.750859 L 20.449804 7.111619 C 20.449804 5.117948 21.283137 4.121112 22.944529 4.121112 C 23.830605 4.121112 24.44242 4.379551 24.785247 4.906977 C 25.1228 5.434403 25.291576 6.178074 25.291576 7.148539 L 25.291576 9.237146 L 22.19031 9.237146 L 22.19031 11.156978 C 22.19031 11.832083 22.248327 12.264573 22.364361 12.449172 C 22.480394 12.633771 22.659719 12.723433 22.891787 12.723433 C 23.123854 12.723433 23.276808 12.670691 23.345373 12.559931 C 23.466681 12.370058 23.529973 12.17491 23.55107 11.974488 C 23.566892 11.774066 23.577441 11.505079 23.577441 11.156978 L 23.577441 10.297273 L 25.281027 10.297273 L 25.281027 10.819425 C 25.281027 11.700227 25.212462 12.338412 25.070057 12.723433 C 24.932926 13.108455 24.774698 13.38799 24.590099 13.562041 C 24.210352 13.931239 23.635458 14.115839 22.87069 14.115839 Z M 22.185036 8.224488 L 23.577441 8.224488 L 23.577441 6.974488 C 23.577441 6.441787 23.535247 6.062041 23.450859 5.829973 C 23.361196 5.597906 23.19242 5.481872 22.928707 5.481872 C 22.928707 5.481872 22.923432 5.481872 22.923432 5.481872 C 22.47512 5.481872 22.232504 5.824699 22.195584 6.515627 C 22.185036 6.647484 22.185036 6.81626 22.185036 7.021956 Z M 28.55107 13.087357 L 28.55107 13.999805 L 26.826386 13.999805 L 26.826386 2.449171 L 28.55107 2.449171 L 28.55107 4.938623 C 28.651281 4.696007 28.814783 4.500859 29.057399 4.347905 C 29.294741 4.194952 29.55318 4.121112 29.827441 4.121112 C 30.660775 4.121112 31.209298 4.490311 31.478285 5.239256 C 31.647062 5.713939 31.73145 6.315205 31.73145 7.043053 L 31.73145 11.1728 C 31.73145 11.183349 31.73145 11.193897 31.73145 11.199172 C 31.73145 12.612674 31.414994 13.504024 30.787357 13.883771 C 30.550015 14.026176 30.281028 14.100016 29.964572 14.100016 C 29.959298 14.100016 29.948749 14.100016 29.932926 14.100016 C 29.268369 14.089467 28.809509 13.751914 28.55107 13.087357 Z M 28.55107 11.030395 C 28.55107 11.621113 28.603812 12.048328 28.709298 12.317315 C 28.814783 12.586303 29.009931 12.718159 29.305289 12.718159 C 29.600648 12.718159 29.785247 12.586303 29.869635 12.327864 C 29.954024 12.074699 29.996218 11.631661 29.996218 11.014573 L 29.996218 7.016682 C 29.996218 6.241366 29.896007 5.771956 29.69031 5.619003 C 29.600648 5.545163 29.484614 5.513517 29.342209 5.513517 C 29.057399 5.513517 28.856977 5.619003 28.735669 5.840522 C 28.614361 6.056766 28.55107 6.447062 28.55107 7.011408 Z M 33.023644 15.724488 L 33.023644 14.532505 L 33.58799 14.532505 C 33.809509 14.532505 33.973011 14.516682 34.094319 14.479763 C 34.215627 14.448117 34.278918 14.379552 34.294741 14.274066 C 34.321112 14.231872 34.331661 14.147484 34.331661 14.03145 C 34.331661 13.915417 34.315838 13.757189 34.289467 13.556767 L 32.723011 4.231872 L 34.363306 4.231872 L 34.990944 9.226598 L 35.249382 11.858454 L 35.391788 11.858454 L 35.629129 9.226598 L 36.19875 4.231872 L 37.833771 4.231872 L 36.140733 14.416471 C 36.066893 14.906978 35.945585 15.249805 35.771534 15.439678 C 35.597484 15.629552 35.291577 15.724488 34.859087 15.724488 Z M 43.598539 14.115839 C 42.622801 14.115839 41.963518 13.831028 41.615417 13.25086 C 41.27259 12.675965 41.098539 11.837357 41.098539 10.745585 L 41.098539 7.581028 C 41.098539 6.162252 41.346429 5.20761 41.84221 4.71183 C 42.23778 4.31626 42.833771 4.121112 43.630185 4.121112 C 44.431872 4.121112 45.006767 4.363728 45.365417 4.843686 C 45.718792 5.328918 45.898117 6.025121 45.898117 6.937568 L 45.898117 8.013518 L 44.231451 8.013518 L 44.231451 6.879551 C 44.231451 6.28356 44.178708 5.914361 44.073223 5.761408 C 43.967737 5.608454 43.788413 5.534614 43.535248 5.534614 C 43.282083 5.534614 43.102758 5.645374 42.997273 5.872167 C 42.891788 6.093686 42.839045 6.441787 42.839045 6.905923 L 42.839045 11.304657 C 42.839045 11.784615 42.886514 12.143265 42.986725 12.364784 C 43.081661 12.591577 43.271535 12.702336 43.556345 12.702336 C 43.941366 12.702336 44.157611 12.428075 44.210353 11.8901 C 44.226176 11.763518 44.231451 11.615838 44.231451 11.447062 C 44.231451 11.404868 44.231451 11.3574 44.231451 11.309931 L 44.231451 10.154868 L 45.898117 10.154868 L 45.898117 11.141155 C 45.898117 12.095796 45.718792 12.834193 45.365417 13.345796 C 45.006767 13.862674 44.421324 14.115839 43.598539 14.115839 Z M 47.401282 13.999805 L 47.401282 2.449171 L 49.120691 2.449171 L 49.120691 13.999805 Z M 53.160776 12.723433 C 53.429763 12.723433 53.614362 12.6074 53.709299 12.370058 C 53.80951 12.132716 53.856979 11.779341 53.856979 11.309931 L 53.856979 6.942842 C 53.856979 6.468159 53.804236 6.109509 53.709299 5.872167 C 53.609088 5.629551 53.424489 5.513517 53.155502 5.513517 C 52.886514 5.513517 52.701915 5.629551 52.601704 5.866893 C 52.501493 6.104235 52.448751 6.462885 52.448751 6.942842 L 52.448751 11.309931 C 52.448751 12.027231 52.570059 12.464995 52.802126 12.628497 C 52.897063 12.691788 53.018371 12.723433 53.160776 12.723433 Z M 53.160776 14.115839 C 52.23778 14.115839 51.604869 13.841577 51.246219 13.293054 C 50.892843 12.739256 50.713518 11.942843 50.713518 10.903813 L 50.713518 7.24875 C 50.713518 5.165416 51.525755 4.121112 53.155502 4.121112 C 54.779974 4.121112 55.592211 5.165416 55.592211 7.24875 L 55.592211 10.903813 C 55.592211 12.528286 55.175544 13.530395 54.336936 13.904868 C 54.015206 14.047273 53.624911 14.115839 53.160776 14.115839 Z M 58.841156 14.121113 C 57.680818 14.121113 57.105924 13.345796 57.105924 11.784615 L 57.105924 4.237146 L 58.835882 4.237146 L 58.835882 11.520902 C 58.835882 11.921746 58.88335 12.222379 58.983561 12.417526 C 59.083772 12.6074 59.268371 12.702336 59.542633 12.702336 C 60.070059 12.702336 60.333772 12.312041 60.333772 11.53145 L 60.339046 4.237146 L 62.058456 4.237146 L 62.058456 13.999805 L 60.333772 13.999805 L 60.333772 12.987147 C 60.059511 13.741366 59.56373 14.121113 58.841156 14.121113 Z M 65.428709 14.100016 C 64.901283 14.100016 64.510988 13.952336 64.247274 13.656978 C 63.988836 13.361619 63.820059 12.987147 63.74622 12.53356 C 63.667106 12.079973 63.630186 11.53145 63.630186 10.882716 L 63.630186 6.905923 C 63.630186 6.088412 63.783139 5.423855 64.078498 4.901703 C 64.379131 4.379551 64.874912 4.121112 65.56584 4.121112 C 65.834827 4.121112 66.077443 4.184403 66.304237 4.31626 C 66.525756 4.442842 66.699806 4.622167 66.826389 4.843686 L 66.826389 2.449171 L 68.551072 2.449171 L 68.551072 13.999805 L 66.826389 13.999805 L 66.826389 13.097906 C 66.56795 13.762463 66.09854 14.100016 65.428709 14.100016 Z M 65.370692 11.114784 C 65.370692 11.652758 65.418161 12.058876 65.523646 12.32259 C 65.623857 12.591577 65.81373 12.723433 66.093266 12.723433 C 66.372802 12.723433 66.56795 12.591577 66.673435 12.32259 C 66.77892 12.058876 66.831663 11.610564 66.831663 10.988201 L 66.831663 7.079973 C 66.831663 6.278285 66.710355 5.793053 66.467739 5.624277 C 66.362253 5.555711 66.240945 5.518792 66.093266 5.518792 C 65.797907 5.518792 65.608034 5.650648 65.513097 5.914361 C 65.418161 6.183349 65.370692 6.573644 65.370692 7.10107 Z M 69.980397 15.724488 L 69.980397 14.532505 L 70.550017 14.532505 C 70.766262 14.532505 70.935039 14.516682 71.051072 14.479763 C 71.17238 14.448117 71.240946 14.379552 71.251494 14.274066 C 71.277866 14.231872 71.288414 14.147484 71.288414 14.03145 C 71.288414 13.915417 71.277866 13.757189 71.24622 13.556767 L 69.685039 4.231872 L 71.325334 4.231872 L 71.947697 9.226598 L 72.206136 11.858454 L 72.353815 11.858454 L 72.585883 9.226598 L 73.160777 4.231872 L 74.790524 4.231872 L 73.10276 14.416471 C 73.028921 14.906978 72.902338 15.249805 72.728288 15.439678 C 72.554237 15.629552 72.253604 15.724488 71.81584 15.724488 Z M 69.980397 15.724488 " stroke="#cc921f" stroke-width="0.499999" stroke-opacity="1" stroke-miterlimit="4"/></svg>